<svg width="332" height="272" viewBox="0 0 332 272" fill="none" xmlns="http://www.w3.org/2000/svg">
<path d="M165.055 0C164.193 1.29114 164.193 1.29124 164.056 2.2099L164.015 3.27996L163.964 4.50302L163.924 5.78323C163.87 7.06029 163.824 8.33589 163.794 9.61378L163.762 11.1899C163.58 17.2541 164.037 23.0802 164.867 29.0893C164.994 30.0113 165.12 30.9331 165.244 31.8557C165.574 34.3429 165.907 36.8294 166.25 39.315L166.348 40.0253C164.031 39.0484 162.332 38.9965 159.884 39.5949C156.769 41.5687 154.648 44.6354 153.718 48.1824L153.473 49.2516C152.115 54.9156 151.387 61.8567 154.281 67.1392C155.691 68.5126 156.845 69.0141 158.784 69.0121C161.466 68.6946 161.467 68.6944 165.779 63.961C166.459 63.2092 167.14 62.4603 167.826 61.7141C168.269 61.244 168.713 60.7738 169.156 60.3036C169.545 59.8607 169.941 59.4238 170.344 58.994C171.457 57.9434 171.458 57.943 172.896 58.2072C174.106 58.5314 174.105 58.5316 175.129 58.0744C175.829 57.2405 175.829 57.2405 175.937 55.8687L175.829 54.6582H177.122C178.362 56.2264 179.01 57.1954 181 57.6709C183.473 57.9439 185.448 57.9228 187.589 56.4924L188.327 55.9494C189.833 54.9098 191.296 53.9094 192.512 52.5315C192.983 51.984 193.47 51.4486 193.971 50.9277C195.014 50.1987 195.605 50.2168 196.865 50.2737C198.985 50.4218 200.479 50.0687 202.413 49.1961C207.594 46.2685 209.681 40.3038 211.233 34.8944L211.598 33.5696C212.324 35.6446 212.324 35.6446 212.622 37.8465C212.864 39.4036 212.992 40.8662 213.945 42.1671C214.951 42.8286 215.596 42.8128 216.77 42.6076C217.977 41.6172 217.977 41.6172 218.259 39.2032C218.919 32.741 219.876 26.5664 223.572 21.1054C224.056 20.3971 224.51 19.6685 224.958 18.9367L224.527 17.6456C223.297 17.4659 222.332 17.4648 221.189 17.9936C218.146 20.1661 216.843 24.4342 216.052 27.9596L215.908 28.8354H215.046C215.046 27.8671 215.046 27.8671 213.322 24.962H210.305C209.604 28.4368 208.816 31.8645 207.578 35.1928C205.817 39.6274 203.588 43.145 199.1 45.1899C200.731 42.5272 202.451 39.8474 203.56 36.9185C204.278 33.8612 204.491 29.9359 202.979 27.1139C201.686 26.2532 201.686 26.2532 200.851 26.154L199.962 26.1725C199.074 26.1809 199.074 26.1809 198.239 26.2532C196.478 26.8393 195.457 27.8151 194.36 29.2658C191.677 34.354 190.578 39.7619 191.828 45.4051C192.116 46.4282 192.116 46.4282 192.205 47.3418C189.263 50.2803 186.292 52.5586 182.293 53.7975C181.808 52.6587 181.808 52.6587 181.862 51.2152C182.398 50.4727 182.398 50.4727 183.155 49.7896C185.764 47.3915 187.717 45.1519 188.893 41.7687L189.189 40.8592C190.149 37.977 190.208 35.6887 189.189 32.7627C187.886 31.3804 186.31 31.1288 184.448 30.9873C182.823 31.5284 181.762 32.3787 180.569 33.5696C176.623 37.9779 176.035 43.951 176.199 49.6147L176.26 50.7848H174.536C169.937 37.1071 168.215 22.1781 167.802 7.80063C167.76 5.03799 167.694 2.62412 166.779 0H165.055ZM87.8068 11.1268C74.6217 11.8258 63.9092 12.8075 52.5561 20.5389C51.505 21.2555 50.4739 21.9219 49.3484 22.5159C43.4152 25.4316 39.0315 29.1362 34.3862 33.7848L33.4258 34.7532C30.2367 37.9675 26.9751 41.1563 24.2773 44.804L23.7024 45.6203C22.9429 46.687 22.201 47.7638 21.4669 48.8481C20.447 50.3575 19.4314 51.869 18.3509 53.336C14.8516 57.9937 12.1243 62.7858 9.62827 68.0454C9.23941 68.865 8.84796 69.6831 8.45325 70.4999C5.73527 76.1043 3.1589 81.5337 1.68762 87.6067C1.54823 88.1995 1.40766 88.7922 1.26593 89.3845C0.695494 91.5734 0.14109 93.7065 0 95.9747C0.392952 97.3942 0.913427 98.1875 2.15477 98.9873C5.53466 99.8076 9.1352 98.6318 12.2569 97.3297C13.0545 96.9871 13.8535 96.6481 14.6541 96.3126L15.9394 95.7755C18.016 94.8985 20.0989 94.0391 22.1874 93.1907C23.0084 92.8575 23.8288 92.5239 24.6494 92.1895C26.3873 91.4808 28.1256 90.7725 29.8646 90.0662C34.3916 88.2284 38.9185 86.3912 43.4186 84.4881C61.5274 76.8244 81.6664 69.2879 101.625 69.1524L102.971 69.1567C106.379 69.1049 109.794 68.9096 112.467 71.3624C113.398 73.2279 113.484 74.6927 112.896 76.6699C109.248 86.4157 100.506 92.5828 91.586 97.1163C90.2448 97.7909 88.9276 98.4661 87.6409 99.2396C83.096 102.138 78.5876 104.24 73.4851 105.935C72.7892 106.166 72.0943 106.399 71.3994 106.633C66.7327 108.208 62.0536 109.746 57.3724 111.277C54.5007 112.216 51.6304 113.159 48.7609 114.104C46.6756 114.791 44.5904 115.479 42.5011 116.155C31.8456 119.587 21.6828 122.708 12.9286 129.975C15.2555 129.747 17.3571 129.151 19.5798 128.436L21.009 127.967C22.6218 127.446 24.2348 126.924 25.8463 126.398C27.3041 125.922 28.7619 125.449 30.2206 124.976C32.0691 124.377 33.9177 123.777 35.7658 123.177C40.1425 121.754 44.5219 120.336 48.9031 118.927C50.9836 118.258 53.0634 117.588 55.1435 116.918C56.8288 116.375 58.5139 115.832 60.1996 115.29C61.808 114.774 63.4167 114.257 65.0243 113.738C65.6279 113.543 66.2311 113.348 66.8348 113.153C72.4785 111.345 78.1793 109.534 83.4997 106.896L84.514 106.378C85.2736 105.995 86.0328 105.611 86.7917 105.226C87.9475 104.633 89.104 104.042 90.2662 103.462C94.5013 101.35 98.4057 99.2534 101.939 96.0814C102.692 95.3925 103.469 94.7286 104.26 94.0825L105.395 93.1772C106.174 92.5294 106.955 91.8838 107.738 91.2405C112.208 87.9284 114.998 83.7321 117.228 78.6611C118.357 75.4688 118.172 72.1568 116.716 69.0928C115.205 67.0889 112.776 65.6834 110.303 65.2706C108.805 65.1306 108.805 65.1304 107.307 64.9873C88.7239 62.5912 68.426 69.4787 51.3154 76.1957C47.2915 77.781 43.2499 79.3177 39.2041 80.8467C28.3532 84.9456 17.5208 89.0917 6.68903 93.2411L5.17144 93.8228C5.54368 92.6896 5.9171 91.5567 6.29175 90.4243L6.76058 89.0079C8.63628 83.2959 10.7245 77.8116 13.4202 72.4366C13.9026 71.4813 14.3848 70.526 14.8612 69.5677C17.0098 65.2391 19.2093 60.9879 22.1571 57.1329C23.4794 55.4904 24.8307 53.8708 25.9658 52.0911C31.084 43.7101 38.1529 36.3785 45.9134 30.3653C58.1655 21.1682 73.788 14.2616 89.2991 16.4259C90.1301 16.5476 90.9616 16.6664 91.7931 16.7848C93.3581 16.8922 94.6462 17.0422 96.1026 17.6456C98.8345 19.1611 101.214 20.9461 102.247 23.9617C102.601 27.1036 102.255 29.7424 100.49 32.3945L99.5502 33.5696C91.4662 40.6947 91.466 40.6951 81.2877 44.7259L80.1573 45.1899C80.1573 46.0506 80.1573 46.0506 80.6438 46.755C81.4502 47.3418 81.4502 47.3418 82.6471 47.404L84.009 47.2611C85.2468 47.1462 86.3013 47.0614 87.4305 46.5323L88.3455 46.0506C93.0873 43.706 97.8757 41.728 100.949 37.2682C101.743 36.0959 102.632 35.1485 103.617 34.1345C105.976 31.7597 106.26 28.3399 106.365 25.1234C106.374 21.5491 105.515 18.9744 103 16.3897C99.1337 13.0766 92.888 10.912 87.8068 11.1268ZM232.175 15.0608C230.181 15.2136 228.905 15.9429 227.543 18.2373C225.355 22.8023 224.728 27.7358 226.163 32.576L226.574 33.8117C227.049 35.2952 227.326 35.9845 228.572 36.9437C230.224 37.6761 231.449 37.587 233.146 37.0127C235.33 35.0136 235.33 35.0136 238.674 25.9169L239.179 24.5316C241.087 26.7666 243.02 28.9678 245.256 30.8831C246.413 31.6388 247.32 31.6519 248.66 31.4177V30.1266C246.963 26.2151 244.141 22.0133 240.788 19.3486C239.507 18.6425 238.434 18.716 237.024 18.9367C234.739 21.2188 234.739 21.2188 231.644 30.7217L231.422 31.4177H230.56C230.428 27.86 230.036 24.0677 231.233 20.6582C231.899 19.2801 232.502 18.6507 233.9 18.0222L235.301 17.6456C235.301 15.9241 235.301 15.9241 234.439 15.0633C233.585 15.0227 232.84 15.0099 232.175 15.0608ZM199.962 30.1266H200.824C200.862 31.19 200.878 32.2499 200.875 33.3141C200.723 36.6623 198.915 39.9203 196.515 42.1772C196.479 41.245 196.455 40.3124 196.434 39.3797C196.442 35.4854 197.212 32.9436 199.962 30.1266ZM184.879 34.8608L186.172 35.2911C186.472 36.7878 186.662 38.0082 186.36 39.5142C185.07 42.3725 183.703 45.165 181 46.9114C181.28 42.3022 182.512 38.813 184.879 34.8608ZM163.762 43.8987C168.098 48.2896 168.098 48.2896 170.227 54.2278C167.546 55.6695 165.598 57.4657 163.495 59.6236C161.934 61.2272 160.326 62.7086 158.591 64.1266C157.559 62.3871 157.136 61.0072 157.118 58.978L157.136 58.0475C157.187 53.7223 157.823 49.278 160.315 45.6203C161.565 44.4019 162.006 43.8987 163.762 43.8987ZM144.208 48.5791C142.32 48.6441 141.86 48.7999 141.651 50.7024C141.441 56.5931 141.031 62.7491 138.501 68.1513L137.905 69.2911C136.513 71.9597 135.201 73.9871 132.734 75.7468C131.826 74.9837 131.826 74.9835 131.655 74.08L131.505 73.1007L131.336 72.0121L131.171 70.8513C130.7 67.5824 130.377 64.4203 130.579 61.1139L130.71 59.4126C130.755 58.823 130.801 58.2334 130.848 57.644C131.028 55.7074 131.242 55.0056 130.148 53.3671C128.586 53.2864 128.586 53.2864 127.131 53.3671C126.7 54.2278 126.7 54.2278 126.263 55.7611C125.472 58.6091 124.735 61.3852 123.36 64.019C122.6 65.3547 122.205 66.4779 121.96 68C123.684 68 123.684 68 124.869 66.924L125.838 65.8481C126.007 69.4571 126.016 73.1396 127.131 76.6076C127.965 78.814 128.896 79.8351 131.01 80.9114C132.383 81.0433 133.222 81.0978 134.457 80.481C140.329 76.0001 143.049 70.3721 144.624 63.2927L144.8 62.4051C145.561 64.8279 146.262 67.3191 147.613 69.4862C148.724 70.8294 149.557 71.5618 151.265 71.8734C151.321 70.2988 151.275 68.9115 150.948 67.3662L150.51 65.8212C150.27 64.9605 150.029 64.1003 149.782 63.2414L149.541 62.4051C149.263 61.4276 148.985 60.4503 148.706 59.4731C147.807 56.3597 146.939 53.2382 146.073 50.1157L145.662 48.6329L144.208 48.5791ZM125.662 92.7258C120.703 92.7916 115.632 95.6483 111.529 98.2174L110.324 98.9873C105.272 102.198 101.189 106.163 97.0049 110.414C96.2745 111.156 95.5416 111.897 94.8072 112.635C94.079 113.366 93.3517 114.097 92.6247 114.829L91.5793 115.883C90.3462 117.127 89.1185 118.374 87.9145 119.646C81.6022 126.653 73.596 136.151 74.0415 146.126L74.124 147.19C74.2328 148.874 74.4344 149.957 75.1744 151.467C76.2788 152.354 76.2786 152.354 77.3292 152.441L78.5025 152.41C79.1979 152.396 79.8932 152.378 80.5883 152.354C81.2906 150.969 81.9918 149.584 82.6909 148.197C82.9774 147.628 83.2642 147.059 83.5511 146.49C83.9734 145.658 84.3955 144.825 84.8153 143.991L85.2177 143.192C86.1264 141.394 86.8884 139.647 87.4835 137.722C86.056 137.453 86.056 137.453 84.4669 137.291C83.174 138.152 83.1743 138.152 82.632 139L82.105 140.025L81.5285 141.134L80.9384 142.294C80.3703 143.393 79.8027 144.491 79.2399 145.592L78.8645 146.329C78.4478 144.124 78.2991 142.655 79.2054 140.528L79.5917 139.712C81.9085 134.658 84.9521 129.762 88.9111 125.832C89.8266 124.999 90.7287 124.178 91.549 123.251C95.9526 118.117 100.818 113.248 105.855 108.731C112.281 103.244 120.072 97.6227 128.855 98.1266C128.855 98.9873 128.855 98.9873 129.36 99.5522C130.211 100.461 130.819 101.347 131.441 102.43C134.492 110.618 133.297 119.834 130.077 127.795L129.717 128.684C127.179 135.394 123.756 142.03 119.177 147.58C118.576 148.298 117.998 149.023 117.436 149.772L116.756 150.7C116.3 151.323 115.843 151.946 115.388 152.57L114.757 153.446L114.142 154.278C113.427 155.261 112.732 155.944 111.785 156.725C110.251 157.974 108.868 159.355 107.469 160.752L106.395 161.831C105.245 162.981 104.096 164.131 102.948 165.283C102.151 166.082 101.353 166.882 100.555 167.681C98.4148 169.823 96.2753 171.967 94.1372 174.111L93.5169 174.734C93.4745 173.269 93.4306 171.804 93.3847 170.34C93.3658 169.742 93.3469 169.145 93.3283 168.547C93.3113 167.953 93.2942 167.359 93.277 166.765L93.2223 165.067C93.1806 163.7 93.2681 162.617 92.655 161.392L91.416 161.043C90.0693 160.962 90.0693 160.962 89.3151 161.446C88.1921 163.128 87.811 164.726 87.6637 166.735L87.6081 167.64C87.5609 168.308 87.5136 168.975 87.4667 169.644C87.3937 170.748 87.3203 171.853 87.242 172.957C87.1264 174.556 87.0107 176.155 86.8969 177.754C85.9247 191.451 85.8403 205.905 81.6118 219.09C80.6847 221.78 79.9416 224.47 79.2954 227.241C80.2112 227.241 80.2112 227.241 81.4502 226.81C83.3177 224.973 84.4384 222.736 85.3574 220.313L85.7597 219.171C88.1683 212.332 89.726 205.362 90.4817 198.155L90.6164 196.833C90.8441 194.623 91.0718 192.413 91.2561 190.199C91.3256 189.352 91.4002 188.506 91.4791 187.659L91.5911 186.462L91.6685 185.321C91.8605 183.39 91.9341 182.725 93.474 181.424C99.5557 178.395 104.509 173.3 108.945 168.257C110.42 166.55 111.93 164.931 113.552 163.362C115.698 161.286 117.776 159.22 119.563 156.82C120.434 155.585 121.292 154.365 122.249 153.195C132.138 141.336 138.88 127.142 138.663 111.502C138.393 104.794 137.271 99.3326 132.251 94.655C130.145 93.2429 127.915 92.6959 125.662 92.7258ZM224.018 102.713C222.747 102.676 221.747 103.022 220.731 104.211C216.844 110.281 216.568 117.973 217.397 124.946C217.827 127.856 218.376 130.593 220.783 132.476C222.24 133.119 222.951 133.302 224.527 132.987C227.964 131.013 227.964 131.013 233.348 114.334L233.577 113.62C235.317 116.022 237.082 118.128 239.331 120.081C242.113 122.167 244.79 122.913 248.229 122.658L248.66 120.506C242.574 117.244 242.574 117.244 238.479 111.388C237.244 109.69 236.012 108.133 234.439 106.734C233.065 106.573 233.065 106.573 231.853 106.734C230.167 107.576 230.167 107.576 228.697 111.125L228.202 112.593C227.922 113.415 227.641 114.237 227.367 115.061C227.18 115.623 226.992 116.184 226.802 116.745C226.345 118.089 225.891 119.434 225.441 120.78L224.958 122.228C224.698 123.005 224.438 123.782 224.178 124.56L223.665 126.101H222.803C222.012 119.641 222.011 113.812 224.096 107.595C224.116 108.747 224.13 109.887 224.096 111.038C223.756 113.372 223.617 115.571 223.665 117.924C224.527 117.494 224.527 117.494 225.052 116.816C227.312 113.093 227.962 108.85 227.112 104.582C226.412 103.533 226.412 103.533 225.389 102.861C224.895 102.78 224.441 102.725 224.018 102.713ZM327.865 107.523C325.751 107.445 324.35 108.013 322.865 109.854C322.045 111.751 322.137 113.403 322.784 115.342C323.775 116.459 324.507 117.013 326.01 117.188C328.136 117.206 329.425 117.277 331.026 115.772C332.103 114.051 332.14 112.594 331.834 110.608C331.157 108.955 330.471 108.329 328.817 107.595C328.484 107.559 328.168 107.535 327.865 107.523ZM210.71 112.021C207.109 111.944 206.517 113.968 203.36 124.761L202.979 126.101C202.049 124.11 201.196 121.979 199.531 120.506C197.915 120.587 197.915 120.587 196.515 120.937C195.99 129.37 195.17 139.216 189.013 145.675L188.327 146.329C186.313 148.295 184.528 149.69 181.862 150.633L181.674 149.907L181.431 148.911L181.117 147.869C180.878 146.755 180.878 146.755 181.542 145.978C184.226 143.471 185.621 140.584 186.429 137.015C186.86 133.874 186.609 130.844 184.825 128.172C183.586 127.392 183.586 127.392 182.724 127.317C181.403 127.426 180.488 127.528 179.455 128.399C175.69 132.814 175.244 137.525 175.058 143.106C175.027 144.063 174.975 144.982 174.831 145.928C174.707 146.632 174.618 147.341 174.536 148.051L175.398 148.911C175.774 150.141 176.115 151.215 176.691 152.354C177.889 153.828 179.164 155.156 181.069 155.569C184.416 155.619 186.621 154.36 189.189 152.354C195.43 146.535 197.837 138.829 198.557 130.582L198.67 129.114H199.1C199.831 131.74 200.078 134.258 200.205 136.968C200.299 139.291 199.953 142.016 201.686 143.747C203.168 143.935 203.168 143.935 204.703 143.747C205.888 142.302 206.167 140.971 206.328 139.132C206.863 132.032 207.373 122.799 212.029 117.063H212.891L213.322 117.924C214.211 118.193 214.211 118.193 215.046 118.354C215.766 116.996 215.948 116.384 215.611 114.858C215.063 113.658 214.876 113.002 213.753 112.329C212.533 112.169 211.541 112.039 210.71 112.021ZM309.494 113.904C306.939 113.964 303.475 115.242 294.239 118.649C293.163 119.049 292.086 119.449 291.008 119.846C290.428 120.061 289.848 120.275 289.267 120.489C286.346 121.569 283.421 122.638 280.493 123.701C279.037 124.229 277.581 124.758 276.125 125.288C274.366 125.927 272.608 126.567 270.848 127.206C269.363 127.745 267.878 128.284 266.393 128.825C265.825 129.032 265.256 129.238 264.688 129.445C259.423 131.352 254.175 133.312 249.067 135.609L248.145 136.029C247.085 136.506 246.026 136.984 244.967 137.464C243.838 137.976 242.71 138.487 241.581 138.997C240.813 139.343 240.046 139.69 239.278 140.036C236.891 141.116 234.502 142.192 232.105 143.249C227.197 145.412 222.298 147.556 217.576 150.106C214.546 151.745 211.481 153.313 208.412 154.878C203.287 157.491 198.161 160.097 193.121 162.872C190.882 164.11 188.641 165.335 186.362 166.5C181.56 168.952 176.889 171.541 172.279 174.337C169.067 176.289 165.839 178.21 162.594 180.106C162.063 180.416 161.53 180.726 160.999 181.037C158.721 182.369 156.443 183.699 154.16 185.022C145.844 189.834 137.667 194.815 129.624 200.071C127.982 201.145 126.335 202.211 124.684 203.274C122.127 204.92 119.583 206.582 117.058 208.277C115.329 209.438 113.59 210.576 111.821 211.676C107.684 214.245 103.677 216.922 99.7506 219.801C98.1466 220.982 96.5346 222.151 94.9183 223.314C94.2709 223.78 93.6242 224.246 92.9774 224.713C91.6877 225.644 90.3975 226.574 89.1064 227.503C85.4626 230.122 81.8292 232.754 78.218 235.418C74.9268 237.846 71.6181 240.249 68.2977 242.637C67.3217 243.338 66.3458 244.04 65.3711 244.743L64.3686 245.468C63.7059 245.946 63.0432 246.425 62.3805 246.903C60.8401 248.017 59.3016 249.133 57.7469 250.227C55.2734 251.957 52.8077 253.654 50.5562 255.672C49.595 256.558 48.6342 257.419 47.6204 258.245C45.3055 260.093 43.0969 262.01 40.9406 264.038C39.0839 265.789 37.2016 267.452 35.2035 269.041C33.8826 270.062 33.2844 270.406 32.7525 272L33.51 271.778L34.5301 271.462C36.8367 270.764 36.8367 270.764 41.9388 267C42.6404 266.481 43.3424 265.962 44.0448 265.443L45.1609 264.62C46.935 263.309 48.7111 262 50.488 260.693C51.1659 260.195 51.843 259.696 52.5208 259.197L53.546 258.443L57.64 255.43C58.3223 254.928 59.0047 254.426 59.687 253.924C61.3882 252.674 63.0901 251.425 64.7836 250.165C69.7336 246.473 74.7629 242.93 79.8863 239.483C81.0476 238.701 82.2078 237.919 83.3676 237.136C90.6051 232.246 97.8438 227.357 105.126 222.533C107.498 220.964 109.876 219.407 112.176 217.732C119.957 212.45 119.957 212.45 128.081 207.7C130.382 206.352 132.667 204.983 134.93 203.572C138.69 201.218 142.485 198.93 146.304 196.673C150.775 194.032 155.241 191.384 159.68 188.688C160.175 188.387 160.67 188.088 161.165 187.788C163.407 186.429 165.648 185.068 167.877 183.687C173.921 179.94 179.982 176.403 186.392 173.302C188.162 172.448 189.909 171.561 191.643 170.637C196.112 168.246 200.645 165.985 205.187 163.737C208.345 162.174 211.494 160.596 214.612 158.955C234.408 148.507 254.619 139.041 275.844 131.841C277.393 131.316 278.937 130.777 280.48 130.234C282.369 129.568 284.26 128.907 286.153 128.253C284.079 129.813 281.997 131.362 279.906 132.899L278.908 133.633C277.065 134.991 275.224 136.35 273.369 137.691L272.225 138.517C271.489 139.05 270.754 139.583 270.019 140.116C268.38 141.286 266.773 142.36 265.469 143.905C263.3 146.423 263.3 146.423 260.888 148.723L259.875 149.707L258.905 150.661C257.799 151.738 257.036 152.657 256.417 154.076L257.71 154.506C258.436 154.04 259.157 153.563 259.845 153.041C260.453 152.568 261.065 152.101 261.681 151.639C262.372 151.124 263.061 150.607 263.749 150.089C266.613 147.93 269.479 145.779 272.416 143.72C273.714 142.815 274.996 141.904 276.229 140.912C280.756 137.188 285.269 134.278 290.523 131.666C292.582 130.647 294.605 129.575 296.618 128.469C299.028 127.139 301.436 125.808 303.879 124.539L305.267 123.828C306.167 123.366 307.068 122.904 307.97 122.443L309.248 121.801L310.438 121.192C311.947 120.431 313.044 119.628 314.165 118.354C314.333 117.433 314.333 117.433 314.165 114.911C312.234 114.269 311.028 113.867 309.494 113.904ZM182.293 132.557H182.724C183.001 133.526 183.001 133.526 183.155 134.709C182.75 137.339 182.059 139.677 180.139 141.595C180.253 138.226 180.674 135.536 182.293 132.557ZM170.555 136.316C169.858 136.33 169.242 136.495 168.449 136.915C165.162 140.197 165.162 140.197 163.569 149.248L163.331 150.633H162.9C162.325 147.7 162.033 144.663 159.884 142.456C158.419 141.927 157.664 141.9 156.194 142.402C154.606 143.785 153.684 145.2 152.988 147.19C152.604 149.788 152.458 151.958 153.904 154.21C155.325 155.043 156.109 155.157 157.729 154.937L158.16 154.506C158.245 156.073 158.332 157.64 158.424 159.207C158.462 159.846 158.5 160.485 158.537 161.123C158.588 162.066 158.639 163.009 158.695 163.952L158.749 164.846C158.845 166.526 158.845 166.526 159.022 167.848C159.884 168.709 159.884 168.709 161.365 169.059C162.9 169.139 162.9 169.139 163.602 168.648C164.705 167.154 164.705 167.154 166.106 158.568C167.075 152.58 167.892 146.298 170.179 140.647C170.631 139.713 170.631 139.713 172.004 139.551L173.243 139.443L173.674 138.152C172.974 137.291 172.974 137.291 171.95 136.43C171.42 136.353 170.973 136.307 170.555 136.316ZM157.298 147.62C158.322 150.068 158.322 150.068 158.16 152.785L156.436 152.354C156.366 150.534 156.296 149.184 157.298 147.62ZM136.478 152.758C133.372 153.253 131.051 155.097 129.044 157.438C123.907 164.591 121.013 174.122 121.96 182.911C122.408 185.059 123.209 186.715 124.976 188.076C126.963 189.338 128.697 189.757 131.01 189.367C139.392 187.069 145.683 181.069 149.967 173.688C151.964 169.999 153.704 166.059 152.558 161.823C151.265 162.253 151.265 162.253 150.81 162.991L150.396 163.948L149.925 165.002C148.587 168.06 147.292 170.964 145.092 173.51L144.369 174.304C143.635 175.203 142.9 176.093 142.124 176.957C138.702 180.463 133.415 183.672 128.424 183.772C127.895 182.113 127.895 182.113 127.934 180.34L127.939 179.334C127.918 175.218 128.817 171.751 130.148 167.848C131.735 163.749 133.344 160.261 137.474 158.38C137.318 159.183 137.16 159.986 136.988 160.786L136.774 161.769C136.654 162.407 136.523 163.042 136.38 163.675C135.928 165.363 135.928 165.363 134.498 165.817C132.702 166.234 132.702 166.234 130.73 168.606C129.789 170.164 129.898 171.234 130.148 173.013C130.927 173.791 131.678 174.006 132.734 174.304C135.526 173.847 137.263 172.595 139.011 170.471C141.932 166.435 143.139 162.047 142.646 157.089L142.215 156.228C141.703 155.179 141.703 155.179 140.922 154.076C139.441 153.02 138.267 152.674 136.478 152.758Z" fill="#EAEA00"/>
</svg>
